<svg width="52" height="39" viewBox="0 0 52 39" fill="none" xmlns="http://www.w3.org/2000/svg">
<path d="M39.7781 39C34.6559 39 27.4913 35.1162 27.4913 28.7726V25.5037C27.4913 22.073 27.4913 16.5062 27.4913 7.73527C27.4913 6.89377 28.1721 6.24647 28.9825 6.24647H33.8454C34.6883 6.24647 35.3367 6.92614 35.3367 7.73527V27.2838C35.3367 29.7112 37.3142 31.6855 39.7456 31.6855H44.1546C44.1546 25.8921 44.1546 10.0656 44.1546 7.96182V7.92946C44.1546 7.89709 44.1546 7.89709 44.1546 7.86473C44.1546 7.83236 44.1546 7.83236 44.1546 7.8V7.76763C44.1546 6.92614 44.8354 6.27883 45.6459 6.27883H50.5087C51.3516 6.27883 52 6.9585 52 7.76763V27.7046C52 30.0996 49.3741 32.7212 47.0075 32.7212H45.1596V34.8573C45.1272 37.4141 43.0848 39 39.7781 39ZM28.9825 7.24979C28.6908 7.24979 28.4638 7.47635 28.4638 7.76763C28.4638 16.5062 28.4638 22.1054 28.4638 25.5361V28.805C28.4638 34.5336 35.0449 38.029 39.7456 38.029C41.0748 38.029 44.1222 37.7378 44.1222 34.8896V32.7212H39.7132C36.7307 32.7212 34.2993 30.2938 34.2993 27.3162V7.76763C34.2993 7.47635 34.0723 7.24979 33.7805 7.24979H28.9825ZM45.1272 31.7178H46.9751C48.8229 31.7178 50.995 29.5494 50.995 27.7046V7.76763C50.995 7.47635 50.7681 7.24979 50.4763 7.24979H45.6135C45.3217 7.24979 45.0948 7.47635 45.0948 7.76763C45.1596 7.89709 45.1272 22.5909 45.1272 31.7178Z" fill="white"/>
<path d="M23.0175 32.7535H18.1546C17.3117 32.7535 16.6633 32.0739 16.6633 31.2647V11.6838C16.6633 9.25643 14.6858 7.28216 12.2544 7.28216H7.84539C7.84539 13.0755 7.84539 28.9021 7.84539 31.0058V31.0382C7.84539 31.0705 7.84539 31.0705 7.84539 31.1029C7.84539 31.1353 7.84539 31.1353 7.84539 31.1676V31.2C7.84539 32.0415 7.16459 32.6888 6.35412 32.6888H1.49127C0.648379 32.6888 0 32.0091 0 31.2V11.3278C0 8.93278 2.62594 6.3112 4.99252 6.3112H6.8404V4.1751C6.87282 1.58589 8.91521 0 12.2544 0C17.3766 0 24.5411 3.88382 24.5411 10.2274V13.4963C24.5411 16.927 24.5411 22.4938 24.5411 31.2647C24.5411 32.0739 23.8604 32.7535 23.0175 32.7535ZM23.0175 31.7502C23.3092 31.7502 23.5362 31.5236 23.5362 31.2324C23.5362 22.4938 23.5362 16.8946 23.5362 13.4639V10.195C23.5362 4.46639 16.9551 0.970954 12.2544 0.970954C10.9252 0.970954 7.87781 1.26224 7.87781 4.11037V6.27884H12.2868C15.2693 6.27884 17.7007 8.70622 17.7007 11.6838V31.2324C17.7007 31.5236 17.9277 31.7502 18.2195 31.7502H23.0175ZM6.35412 31.7502C6.64589 31.7502 6.87282 31.5236 6.87282 31.2324C6.87282 31.1029 6.87282 16.3768 6.87282 7.28216H5.02494C3.17706 7.28216 1.00499 9.48299 1.00499 11.3278V31.2647C1.00499 31.556 1.23192 31.7826 1.52369 31.7826H6.35412V31.7502Z" fill="white"/>
</svg>
