<svg width="98" height="38" viewBox="0 0 98 38" fill="none" xmlns="http://www.w3.org/2000/svg">
<mask id="mask0" mask-type="alpha" maskUnits="userSpaceOnUse" x="0" y="0" width="38" height="38">
<path fill-rule="evenodd" clip-rule="evenodd" d="M0 0.0117188H37.9724V37.9841H0V0.0117188Z" fill="white"/>
</mask>
<g mask="url(#mask0)">
<path fill-rule="evenodd" clip-rule="evenodd" d="M33.9119 37.9841H4.06054C1.81795 37.9841 0 36.1661 0 33.9236V4.07225C0 1.82966 1.81795 0.0117188 4.06054 0.0117188H33.9119C36.1544 0.0117188 37.9724 1.82966 37.9724 4.07225V33.9236C37.9724 36.1661 36.1544 37.9841 33.9119 37.9841Z" fill="black"/>
</g>
<path fill-rule="evenodd" clip-rule="evenodd" d="M30.452 29.7223L29.7223 30.452C26.5674 33.6069 21.4524 33.6069 18.2975 30.452L8.41158 20.5661C5.25669 17.4112 5.25669 12.2961 8.41158 9.14123L9.14127 8.41158C12.2961 5.25669 17.4112 5.25669 20.5661 8.41158L30.452 18.2975C33.6069 21.4523 33.6069 26.5674 30.452 29.7223Z" fill="white"/>
<path fill-rule="evenodd" clip-rule="evenodd" d="M7.69743 31.1662C4.34321 27.812 4.34321 22.3738 7.69743 19.0196L19.0195 7.69755C22.3737 4.34333 27.8119 4.34333 31.1661 7.69755C34.5203 11.0517 34.5203 16.49 31.1661 19.8442L19.8441 31.1662C16.4899 34.5204 11.0516 34.5204 7.69743 31.1662Z" fill="#2CED64"/>
<path fill-rule="evenodd" clip-rule="evenodd" d="M45.6755 23.4248C44.5584 22.3748 44 21.0426 44 19.4286C44 17.8147 44.5584 16.4826 45.6755 15.4324C46.7922 14.3825 48.1578 13.8572 49.7719 13.8572C51.0224 13.8572 52.134 14.178 53.1067 14.8194C54.0792 15.4611 54.7581 16.3507 55.1429 17.4887H51.8722C51.4445 16.6921 50.7604 16.2937 49.8199 16.2937C48.8793 16.2937 48.139 16.5784 47.5994 17.1473C47.0595 17.7165 46.7897 18.4769 46.7897 19.4286C46.7897 20.3807 47.0595 21.1411 47.5994 21.71C48.139 22.279 48.8793 22.5635 49.8199 22.5635C50.7604 22.5635 51.4445 22.1654 51.8722 21.3686H55.1429C54.7581 22.5068 54.0792 23.3965 53.1067 24.0379C52.134 24.6794 51.0224 25 49.7719 25C48.1578 25 46.7922 24.475 45.6755 23.4248Z" fill="black"/>
<path fill-rule="evenodd" clip-rule="evenodd" d="M62.0647 21.9949C62.4311 21.5986 62.6146 21.0263 62.6146 20.2776C62.6146 19.5291 62.4258 18.9594 62.0485 18.5685C61.671 18.1779 61.2237 17.9823 60.7062 17.9823C60.1887 17.9823 59.7439 18.1779 59.372 18.5685C59 18.9594 58.814 19.5291 58.814 20.2776C58.814 21.0263 59.0053 21.5986 59.3882 21.9949C59.7708 22.3912 60.221 22.5893 60.7385 22.5893C61.2561 22.5893 61.698 22.3912 62.0647 21.9949ZM57.3666 23.6957C56.4554 22.8261 56 21.6811 56 20.2611C56 18.841 56.4528 17.7044 57.3585 16.8513C58.2642 15.9983 59.3854 15.5715 60.7224 15.5715C62.0591 15.5715 63.1778 15.9983 64.0782 16.8513C64.9783 17.7044 65.4286 18.841 65.4286 20.2611C65.4286 21.6811 64.9811 22.8261 64.0863 23.6957C63.1912 24.5653 62.0753 25.0001 60.7385 25.0001C59.4015 25.0001 58.2776 24.5653 57.3666 23.6957Z" fill="black"/>
<path fill-rule="evenodd" clip-rule="evenodd" d="M70.0479 15.6719V17.0427C70.648 16.0621 71.605 15.5715 72.9189 15.5715C74.0062 15.5715 74.8866 15.9284 75.5606 16.6415C76.2342 17.3549 76.5714 18.3245 76.5714 19.5502V25.0001H73.6834V19.9348C73.6834 19.3329 73.522 18.8677 73.1992 18.5388C72.8764 18.2103 72.4318 18.0457 71.8656 18.0457C71.2991 18.0457 70.8548 18.2103 70.532 18.5388C70.2092 18.8677 70.0479 19.3329 70.0479 19.9348V25.0001H67.1428V15.6719H70.0479Z" fill="black"/>
<path fill-rule="evenodd" clip-rule="evenodd" d="M83.5275 22.0442C83.9222 21.6587 84.1198 21.1126 84.1198 20.4057C84.1198 19.6989 83.9222 19.1554 83.5275 18.7752C83.1326 18.3951 82.6791 18.2048 82.1669 18.2048C81.6546 18.2048 81.2009 18.3976 80.8062 18.7832C80.4113 19.1687 80.2139 19.7149 80.2139 20.4217C80.2139 21.1285 80.4113 21.6722 80.8062 22.0523C81.2009 22.4325 81.6546 22.6225 82.1669 22.6225C82.6791 22.6225 83.1326 22.4297 83.5275 22.0442ZM78.6131 23.7149C77.8233 22.8582 77.4286 21.7606 77.4286 20.4217C77.4286 19.0831 77.8233 17.9827 78.6131 17.1205C79.4028 16.2586 80.3659 15.8273 81.5026 15.8273C82.6391 15.8273 83.5115 16.2506 84.1198 17.0964V13H86.8572V24.8875H84.1198V23.5863C83.458 24.5289 82.5723 25 81.4625 25C80.3525 25 79.4028 24.5718 78.6131 23.7149Z" fill="black"/>
<path fill-rule="evenodd" clip-rule="evenodd" d="M95.0949 15.5715H98V24.8998H95.0949V23.529C94.4945 24.5099 93.5376 25.0001 92.224 25.0001C91.1367 25.0001 90.256 24.6435 89.5823 23.9302C88.9083 23.2171 88.5714 22.2475 88.5714 21.0214V15.5715H91.4595V20.6368C91.4595 21.2387 91.6209 21.7042 91.9436 22.0327C92.2664 22.3617 92.7107 22.5259 93.2772 22.5259C93.8434 22.5259 94.288 22.3617 94.6107 22.0327C94.9336 21.7042 95.0949 21.2387 95.0949 20.6368V15.5715Z" fill="black"/>
</svg>
